<mxfile host="app.diagrams.net" modified="2023-05-18T08:37:23.230Z" agent="Mozilla/5.0 (Windows NT 10.0; Win64; x64) AppleWebKit/537.36 (KHTML, like Gecko) Chrome/113.0.0.0 Safari/537.36 Edg/113.0.1774.42" version="21.3.0" etag="wOj1dYiV3yMRUl7Sa32L" type="github">
  <diagram name="第 1 页" id="V0CLP1AJc3eMLi_e2w1N">
    <mxGraphModel>
      <root>
        <mxCell id="0" />
        <mxCell id="1" parent="0" />
      </root>
    </mxGraphModel>
  </diagram>
</mxfile>
